<?xml version="1.0" encoding="utf-8"?>
<!-- Generator: Adobe Illustrator 25.2.1, SVG Export Plug-In . SVG Version: 6.00 Build 0)  -->
<svg version="1.1" id="Layer_1" xmlns="http://www.w3.org/2000/svg" xmlns:xlink="http://www.w3.org/1999/xlink" x="0px" y="0px"
	 viewBox="0 0 71.8 71.6" style="enable-background:new 0 0 71.8 71.6;" xml:space="preserve">
<style type="text/css">
	.st0{fill:#FFFFFF;}
</style>
<g>
	<path class="st0" d="M68.8,2.1H3c-0.5,0-0.8,0.4-0.8,0.8v65.7c0,0.5,0.4,0.8,0.8,0.8h65.8c0.5,0,0.8-0.4,0.8-0.8V2.9
		C69.6,2.5,69.2,2.1,68.8,2.1z M4.5,67.2c0.4-16.7,13.9-30.1,30.6-30.6C34.6,53.3,21.2,66.8,4.5,67.2z M67.9,59.9
		c-3.6-14-16.2-24.5-31.2-24.8C36.3,20,25.9,7.4,11.9,3.8h56V59.9z"/>
</g>
</svg>
